<svg xmlns="http://www.w3.org/2000/svg" width="1200" height="630" viewBox="0 0 1200 630">
  <rect width="1200" height="630" fill="#080c10"/>
  <defs>
    <pattern id="dots" width="22" height="22" patternUnits="userSpaceOnUse">
      <circle cx="2" cy="2" r="1" fill="#cbd5e1" opacity="0.18"/>
    </pattern>
  </defs>
  <rect width="1200" height="630" fill="url(#dots)" opacity="0.45"/>
  <rect x="52" y="52" width="1096" height="526" fill="#0d1117" stroke="#1e2d3d" stroke-width="2"/>
  <path d="M84 96h42M84 96v42M1116 96h-42M1116 96v42M84 536h42M84 536v-42M1116 536h-42M1116 536v-42" stroke="#f5a623" stroke-width="3" fill="none"/>
  <path d="M118 420h180v-72h130v92h190v-134h260" stroke="#4ade80" stroke-width="8" fill="none" stroke-linecap="round" stroke-linejoin="round" opacity="0.68"/>
  <path d="M118 256h240v-86h260v110h260" stroke="#f5a623" stroke-width="8" fill="none" stroke-linecap="round" stroke-linejoin="round" opacity="0.7"/>
  <rect x="492" y="228" width="184" height="152" rx="8" fill="#101722" stroke="#f5a623" stroke-width="3"/>
  <text x="108" y="160" fill="#f5a623" font-family="JetBrains Mono, Consolas, monospace" font-size="32" font-weight="700">&gt; signal_source</text>
  <text x="108" y="270" fill="#f8fafc" font-family="JetBrains Mono, Consolas, monospace" font-size="72" font-weight="700">ECE Engineering</text>
  <text x="108" y="350" fill="#f8fafc" font-family="JetBrains Mono, Consolas, monospace" font-size="72" font-weight="700">Journey Log</text>
  <text x="108" y="474" fill="#cbd5e1" font-family="Inter, Arial, sans-serif" font-size="34">projects // failures // field notes // timeline</text>
</svg>
